<svg width="12" height="12" viewBox="0 0 12 12" fill="none" xmlns="http://www.w3.org/2000/svg">
  <path
    d="M0.666626 0.666659V3.99999H1.05463M1.05463 3.99999C1.49719 2.90541 2.29041 1.9886 3.30998 1.39323C4.32954 0.797868 5.51783 0.557601 6.68861 0.710086C7.85938 0.862571 8.94648 1.39919 9.77954 2.23584C10.6126 3.0725 11.1445 4.1619 11.292 5.33333M1.05463 3.99999H3.99996M11.3333 11.3333V7.99999H10.946M10.946 7.99999C10.5028 9.09393 9.70931 10.01 8.68985 10.6049C7.67038 11.1997 6.48245 11.4397 5.31203 11.2872C4.1416 11.1348 3.05476 10.5986 2.22165 9.76248C1.38854 8.92638 0.856196 7.83762 0.707959 6.66666M10.946 7.99999H7.99996"
    stroke="#838598" stroke-linecap="round" stroke-linejoin="round" />
</svg>
